<?xml version="1.0" encoding="UTF-8"?>
<svg width="389px" height="413px" viewBox="0 0 389 413" version="1.1" xmlns="http://www.w3.org/2000/svg" xmlns:xlink="http://www.w3.org/1999/xlink">
    <defs></defs>
    <g id="All-Screens" stroke="none" stroke-width="1" fill="none" fill-rule="evenodd" opacity="0.2">
        <g id="Home_page_Expertises_2" transform="translate(-741.000000, -6442.000000)" fill-rule="nonzero" fill="#230070">
            <g id="6_services_section" transform="translate(0.000000, 6372.000000)">
                <g id="right" transform="translate(653.000000, 70.000000)">
                    <path d="M434.310834,84.8819298 C457.763268,84.8819298 476.775221,65.8804626 476.775221,42.4409649 C476.775221,19.0014672 457.763268,0 434.310834,0 C410.8584,0 391.846446,19.0014672 391.846446,42.4409649 C391.846446,65.8804626 410.8584,84.8819298 434.310834,84.8819298 Z M277.379656,413 C172.78816,413 88,328.258607 88,223.724802 C88,119.190997 172.78816,34.449604 277.379656,34.449604 C381.971152,34.449604 466.759313,119.190997 466.759313,223.724802 C466.759313,328.258607 381.971152,413 277.379656,413 Z M276.962606,319.431999 C329.384961,319.431999 371.881677,276.958724 371.881677,224.565284 C371.881677,172.171844 329.384961,129.698569 276.962606,129.698569 C224.540251,129.698569 182.043536,172.171844 182.043536,224.565284 C182.043536,276.958724 224.540251,319.431999 276.962606,319.431999 Z" id="ic_elips_animation"></path>
                </g>
            </g>
        </g>
    </g>
</svg>